<?xml version="1.0" encoding="utf-8"?>
<!-- Generator: Adobe Illustrator 26.3.1, SVG Export Plug-In . SVG Version: 6.00 Build 0)  -->
<svg version="1.1" id="Layer_1" xmlns:serif="http://www.serif.com/"
	 xmlns="http://www.w3.org/2000/svg" xmlns:xlink="http://www.w3.org/1999/xlink" x="0px" y="0px" viewBox="0 0 862 456"
	 style="enable-background:new 0 0 862 456;" xml:space="preserve">
<style type="text/css">
	.st0{fill:#FFFFFF;}
	.st1{fill:#845932;}
	.st2{fill:#231F20;}
	.st3{font-family:'ComicSansMS-BoldItalic';}
	.st4{font-size:82.8735px;}
</style>
<g>
	<path class="st0" d="M413.2,189.4c0-23.6-13.9-42.9-31-42.9c-17.1,0-31,19.2-31,42.9s13.9,42.9,31,42.9
		C399.3,232.3,413.2,213.1,413.2,189.4z M365.4,190c0-13.4,7.6-24.2,16.9-24.2c9.3,0,16.9,10.9,16.9,24.2s-7.6,24.2-16.9,24.2
		C373,214.3,365.4,203.4,365.4,190z M487.4,146.6c-17.1,0-31,19.2-31,42.9s13.9,42.9,31,42.9s31-19.2,31-42.9
		S504.5,146.6,487.4,146.6z M487.6,214.3c-9.3,0-16.9-10.9-16.9-24.2s7.6-24.2,16.9-24.2s16.9,10.9,16.9,24.2S497,214.3,487.6,214.3
		L487.6,214.3z M486.3,249.3c0.6,1.1,0.1,2.7-0.5,3.9c-10.7,19.4-35.6,32.2-59.1,30.5c-2.4-0.2-4.8-0.5-7.2-1h0
		c-19.9-4-34.1-17.6-42.6-28.3c-0.6-0.8-2-2.8-1.6-4.5c0.2-0.9,0.9-1.6,1.8-1.8c0.4-0.1,0.7-0.1,1.1-0.1c0.6,0,1.1,0.1,1.6,0.1
		c33,3.4,62.8,3.8,91,1.1c1.6-0.2,3.3-0.4,4.9-0.6c2.3-0.3,4.5-0.6,6.7-0.7C483.8,247.8,485.7,248.2,486.3,249.3L486.3,249.3z"/>
	<path class="st1" d="M551.5,231.6c0-0.1,0.1-0.2,0.1-0.4c0.1-0.3,9.7-26.4-0.5-46c-5-9.7-14.3-16.3-27.4-19.6l0,0
		c-2.4-0.6-3.9-3.1-3.2-5.5c0.1-0.5,0.3-1,0.6-1.4c0.3-3,0.5-6.1,0.5-9.2l0-0.4c0.1-4.8,0-10.3-2-15.3c-2.6-6.9-8.1-11.3-12.2-13.8
		c-2.8-1.7-5.7-3-8.8-4c-0.8-0.2-6.5-1.3-8.9-1.7c-2.9-0.5-4.7-0.9-5.7-2.2c-22.5,19.5-48.8,34.2-77.2,43.2
		c6.7,8.6,10.9,20.7,10.9,34.1c0.1,10.6-2.7,21.1-8.2,30.2c13.3-4,29.7-10.5,43.1-20.6c-0.5-3.2-0.7-6.4-0.7-9.6
		c0-26.1,15.9-47.4,35.5-47.4s35.5,21.2,35.5,47.4c0,26.1-15.9,47.4-35.5,47.4c-15.8,0-29.2-13.8-33.8-32.9
		c-15.6,11.2-34.6,17.9-48.5,21.7c-6.2,7-14.2,11.2-22.9,11.2c-5.3,0-10.4-1.5-14.8-4.3c-24.7,2.4-47.8,2.7-55.3,2.8
		c-4.6,2.1-20.8,11.9-23,13.6c-9.6,8.7-14.5,21.4-13.4,34.2c1.4,13.1,9.1,24.7,20.6,31.1c11.2,6.2,24.5,7.3,38.2,6.3
		C381.2,312.9,516.8,286.6,551.5,231.6z M489.7,255.4c-11,19.9-34.7,33-58.7,33c-1.6,0-3.1-0.1-4.7-0.2c-2.6-0.2-5.2-0.5-7.7-1.1h0
		c-16.8-3.4-32.5-13.7-45.2-29.9c-2.2-2.8-3.1-5.8-2.4-8.4c0.6-2.4,2.5-4.3,4.9-5c1.5-0.3,3-0.4,4.5-0.2c32.7,3.4,62.2,3.7,90.1,1.1
		c1.6-0.1,3.2-0.4,4.8-0.6c2.3-0.3,4.7-0.6,7-0.8c3.6-0.2,6.6,1.2,8,3.6C491.6,249.4,491.4,252.4,489.7,255.4z M590.5,278.9
		c-1.1,18.1-20.4,33.1-38.9,38.7c-18,5.4-37.9,4.5-57.1,3.6c-3.7-0.2-7.5-0.3-11.2-0.5c-22.6-0.8-45-2.8-67.4-6.1
		c-2.3-0.3-4.8-0.9-7.4-1.4c-2.3-0.5-4.7-1-7.1-1.4c56.6-13.7,125.9-37.5,152-75c0.1,0.1,0.3,0.2,0.4,0.2
		C579.2,248.6,591.5,262.7,590.5,278.9z M316.6,229.5c-4.3-17.7-2.9-32.4,4.1-43.5c9.5-15,26.6-18.7,26.8-18.7
		c2.4-0.5,4-2.9,3.6-5.3c0-0.2-0.1-0.5-0.2-0.7c-5.4-14.7-5.4-27.8,0-39.1c9.2-19.1,31.1-27.3,33.6-28.2c2.1,0.3,4.1,0.5,6.2,0.5
		c9.5,0,24.1-2.3,35.6-8.7c1.1-0.6,1.5-2,0.9-3.1c-0.6-1.1-2-1.5-3.1-0.9c0,0,0,0,0,0c-12.9,7.1-29,8.5-36.3,8.1c0-0.3,0-0.6,0-1
		c-0.9-6.2-2-13.3-1-19.1c0.7-3.8,2.9-6.4,5.7-9.7c1.4-1.6,2.8-3.3,4.1-5.1c6.5-9.3,4.3-18.6,2.4-26.7c-0.3-1.3-0.6-2.6-0.9-3.9
		c-0.5-2.1-0.2-4,0.5-4.7c5.4-5.4,28.7,5.6,43,15.8c13.5,9.7,24.3,22.7,31.3,37.8c4.5,9.7,7.4,22,9.7,34c-8.6,7.9-36.9,31.6-79,44.3
		l0.1,0.2c-6-6.1-13.4-9.7-21.5-9.7c-19.6,0-35.5,21.2-35.5,47.4c0,16.1,6.1,30.4,15.4,39c-18.7,1.6-36,2.1-45.3,2.3
		C316.8,230.3,316.7,229.9,316.6,229.5L316.6,229.5L316.6,229.5z"/>
	<path class="st2" d="M382.4,165.8c9.3,0,16.9,10.9,16.9,24.2s-7.6,24.2-16.9,24.2c-9.3,0-16.9-10.9-16.9-24.2
		S373,165.8,382.4,165.8z M599.5,279.4c-1.4,23.2-24.5,40.5-45.3,46.7c-12.3,3.7-25.1,4.7-37.8,4.7c-7.4,0-14.9-0.3-22.2-0.7
		c-3.7-0.2-7.4-0.3-11-0.5c-22.9-0.8-45.7-2.9-68.4-6.2c-2.6-0.4-5.4-1-8-1.5c-5.9-1.2-12-2.5-17.1-1.8c-6.1,0.9-12.6,2.2-19.4,3.6
		c-25.7,5.2-54.8,11.2-78.3-1.7c-23.8-13.1-32.5-43.1-19.4-66.9c2.7-5,6.3-9.5,10.6-13.2c1.4-1.2,9.8-6.3,13.6-8.6
		c4.7-2.8,7.9-4.6,10.2-5.7c-3.8-18.5-1.7-34.2,6.3-46.6c8.3-13,20.8-18.8,27.6-21.2c-4.7-15.3-4.1-29.3,1.9-41.7
		c9-18.7,27.7-28.2,35.5-31.5c-0.8-5.8-1.5-12.4-0.4-18.5c1.1-6.2,4.6-10.3,7.8-14c1.3-1.5,2.5-2.9,3.5-4.4c4.2-6,2.8-12,1-19.5
		c-0.3-1.3-0.6-2.7-0.9-4.1c-1.1-5.2-0.1-10,2.9-13c13.7-13.7,50.5,11.8,54.6,14.8c14.8,10.6,26.6,24.9,34.3,41.4
		c4.9,10.5,7.9,23.4,10.4,36c7,1.3,9.1,1.7,9.9,2c3.8,1.2,7.4,2.8,10.7,4.9c7.6,4.7,13.1,11,15.9,18.3c2.5,6.5,2.7,13.5,2.6,18.8
		l0,0.3c-0.1,3.7-0.2,6.4-0.3,8.4c13.5,4.4,23.3,12.1,29,23c9.6,18.4,4.8,40.5,2.2,49.4C587.9,243.6,600.7,260,599.5,279.4z
		 M316.6,229.5L316.6,229.5L316.6,229.5c0.1,0.4,0.1,0.8,0.1,1.2c9.3-0.1,26.5-0.6,45.3-2.3c-9.3-8.6-15.4-22.8-15.4-39
		c0-26.1,15.9-47.4,35.5-47.4c8.1,0,15.5,3.6,21.5,9.7l-0.1-0.2c42.1-12.7,70.4-36.4,79-44.3c-2.3-12-5.2-24.3-9.7-34
		c-7-15.1-17.8-28.1-31.3-37.8c-14.3-10.2-37.6-21.1-43-15.8c-0.8,0.8-1,2.6-0.5,4.7c0.3,1.3,0.6,2.6,0.9,3.9
		c1.9,8.2,4.1,17.4-2.4,26.7c-1.3,1.8-2.6,3.5-4.1,5.1c-2.8,3.3-5,5.9-5.7,9.7c-1.1,5.9,0,12.9,1,19.1c0,0.3,0.1,0.6,0,1
		c7.4,0.4,23.4-1,36.3-8.1c1.1-0.6,2.5-0.2,3.1,0.9c0.6,1.1,0.2,2.5-0.9,3.1c0,0,0,0,0,0c-11.6,6.3-26.2,8.7-35.6,8.7
		c-2.1,0-4.2-0.1-6.2-0.5c-2.5,0.9-24.4,9.1-33.6,28.2c-5.4,11.3-5.4,24.5,0,39.1c0.9,2.3-0.3,4.9-2.7,5.8c-0.2,0.1-0.5,0.1-0.7,0.2
		c-0.2,0-17.2,3.7-26.8,18.7C313.7,197.2,312.3,211.8,316.6,229.5z M382.2,146.6c-17.1,0-31,19.2-31,42.9s13.9,42.9,31,42.9
		c17.1,0,31-19.2,31-42.9S399.3,146.6,382.2,146.6z M551.5,231.6c0-0.1,0.1-0.2,0.1-0.4c0.1-0.3,9.7-26.4-0.5-46
		c-5-9.7-14.3-16.3-27.4-19.6l0,0c-2.4-0.6-3.9-3.1-3.2-5.5c0.1-0.5,0.3-1,0.6-1.4c0.3-3,0.5-6.1,0.5-9.2l0-0.4
		c0.1-4.8,0-10.3-2-15.3c-2.6-6.9-8.1-11.3-12.2-13.8c-2.8-1.7-5.7-3-8.8-4c-0.8-0.2-6.5-1.3-8.9-1.7c-2.9-0.5-4.7-0.9-5.7-2.2
		c-22.5,19.5-48.8,34.2-77.2,43.2c6.7,8.6,10.9,20.7,10.9,34.1c0.1,10.6-2.7,21.1-8.2,30.2c13.3-4,29.7-10.5,43.1-20.6
		c-0.5-3.2-0.7-6.4-0.7-9.6c0-26.1,15.9-47.4,35.5-47.4s35.5,21.2,35.5,47.4c0,26.1-15.9,47.4-35.5,47.4
		c-15.8,0-29.2-13.8-33.8-32.9c-15.6,11.2-34.6,17.9-48.5,21.7c-6.2,7-14.2,11.2-22.9,11.2c-5.3,0-10.4-1.5-14.8-4.3
		c-24.7,2.4-47.8,2.7-55.3,2.8c-4.6,2.1-20.8,11.9-23,13.6c-9.6,8.7-14.5,21.4-13.4,34.2c1.4,13.1,9.1,24.7,20.6,31.1
		c11.2,6.2,24.5,7.3,38.2,6.3C381.2,312.9,516.8,286.6,551.5,231.6z M487.4,232.3c17.1,0,31-19.2,31-42.9s-13.9-42.9-31-42.9
		s-31,19.2-31,42.9S470.3,232.3,487.4,232.3L487.4,232.3z M554,237c-0.1-0.1-0.3-0.1-0.4-0.2c-26.2,37.5-95.5,61.3-152,75
		c2.4,0.4,4.7,0.9,7.1,1.4c2.6,0.6,5.1,1.1,7.4,1.4c22.3,3.3,44.8,5.3,67.4,6.1c3.7,0.1,7.4,0.3,11.2,0.5c19.2,0.9,39,1.8,57.1-3.6
		c18.5-5.5,37.8-20.6,38.9-38.7C591.5,262.7,579.2,248.6,554,237L554,237z M487.6,214.3c9.3,0,16.9-10.9,16.9-24.2
		s-7.6-24.2-16.9-24.2s-16.9,10.9-16.9,24.2S478.3,214.3,487.6,214.3L487.6,214.3z M490.2,247c1.3,2.3,1.2,5.3-0.5,8.3
		c-11,19.9-34.7,33-58.7,33c-1.6,0-3.1-0.1-4.7-0.2c-2.6-0.2-5.2-0.5-7.7-1.1h0c-16.8-3.4-32.5-13.7-45.2-29.9
		c-2.2-2.8-3.1-5.8-2.4-8.4c0.6-2.4,2.5-4.3,4.9-5c1.5-0.3,3-0.4,4.5-0.2c32.7,3.4,62.2,3.7,90.1,1.1c1.6-0.1,3.2-0.4,4.8-0.6
		c2.3-0.3,4.7-0.6,7-0.8C485.8,243.2,488.8,244.6,490.2,247L490.2,247z M486.3,249.3c-0.7-1.1-2.5-1.5-3.9-1.4
		c-2.2,0.1-4.4,0.4-6.7,0.7c-1.7,0.2-3.3,0.5-4.9,0.6c-28.2,2.7-57.9,2.3-91-1.1c-0.5-0.1-1.1-0.1-1.6-0.1c-0.4,0-0.7,0-1.1,0.1
		c-0.9,0.3-1.5,1-1.8,1.8c-0.4,1.7,0.9,3.7,1.6,4.5c8.4,10.7,22.6,24.3,42.6,28.3h0c2.4,0.5,4.8,0.8,7.2,1
		c23.6,1.7,48.4-11.1,59.1-30.5C486.4,252,486.9,250.4,486.3,249.3L486.3,249.3z"/>
</g>
<text transform="matrix(1.528 0 0 1 19.9667 424.7676)" class="st3 st4">MAUI FAILS</text>
</svg>
