<?xml version="1.0" encoding="utf-8"?>
<!-- Generator: Adobe Illustrator 26.3.1, SVG Export Plug-In . SVG Version: 6.00 Build 0)  -->
<svg version="1.1" id="Layer_1" xmlns:serif="http://www.serif.com/"
	 xmlns="http://www.w3.org/2000/svg" xmlns:xlink="http://www.w3.org/1999/xlink" x="0px" y="0px" viewBox="0 0 862 456"
	 style="enable-background:new 0 0 862 456;" xml:space="preserve">
<style type="text/css">
	.st0{fill:#FFFFFF;}
	.st1{fill:#845932;}
	.st2{fill:#231F20;}
	.st3{enable-background:new    ;}
</style>
<g>
	<path class="st0" d="M413.2,189.4c0-23.6-13.9-42.9-31-42.9s-31,19.2-31,42.9s13.9,42.9,31,42.9
		C399.3,232.3,413.2,213.1,413.2,189.4z M365.4,190c0-13.4,7.6-24.2,16.9-24.2s16.9,10.9,16.9,24.2s-7.6,24.2-16.9,24.2
		C373,214.3,365.4,203.4,365.4,190z M487.4,146.6c-17.1,0-31,19.2-31,42.9s13.9,42.9,31,42.9s31-19.2,31-42.9
		S504.5,146.6,487.4,146.6z M487.6,214.3c-9.3,0-16.9-10.9-16.9-24.2s7.6-24.2,16.9-24.2s16.9,10.9,16.9,24.2S497,214.3,487.6,214.3
		L487.6,214.3z M486.3,249.3c0.6,1.1,0.1,2.7-0.5,3.9c-10.7,19.4-35.6,32.2-59.1,30.5c-2.4-0.2-4.8-0.5-7.2-1l0,0
		c-19.9-4-34.1-17.6-42.6-28.3c-0.6-0.8-2-2.8-1.6-4.5c0.2-0.9,0.9-1.6,1.8-1.8c0.4-0.1,0.7-0.1,1.1-0.1c0.6,0,1.1,0.1,1.6,0.1
		c33,3.4,62.8,3.8,91,1.1c1.6-0.2,3.3-0.4,4.9-0.6c2.3-0.3,4.5-0.6,6.7-0.7C483.8,247.8,485.7,248.2,486.3,249.3L486.3,249.3z"/>
	<path class="st1" d="M551.5,231.6c0-0.1,0.1-0.2,0.1-0.4c0.1-0.3,9.7-26.4-0.5-46c-5-9.7-14.3-16.3-27.4-19.6l0,0
		c-2.4-0.6-3.9-3.1-3.2-5.5c0.1-0.5,0.3-1,0.6-1.4c0.3-3,0.5-6.1,0.5-9.2v-0.4c0.1-4.8,0-10.3-2-15.3c-2.6-6.9-8.1-11.3-12.2-13.8
		c-2.8-1.7-5.7-3-8.8-4c-0.8-0.2-6.5-1.3-8.9-1.7c-2.9-0.5-4.7-0.9-5.7-2.2c-22.5,19.5-48.8,34.2-77.2,43.2
		c6.7,8.6,10.9,20.7,10.9,34.1c0.1,10.6-2.7,21.1-8.2,30.2c13.3-4,29.7-10.5,43.1-20.6c-0.5-3.2-0.7-6.4-0.7-9.6
		c0-26.1,15.9-47.4,35.5-47.4s35.5,21.2,35.5,47.4c0,26.1-15.9,47.4-35.5,47.4c-15.8,0-29.2-13.8-33.8-32.9
		c-15.6,11.2-34.6,17.9-48.5,21.7c-6.2,7-14.2,11.2-22.9,11.2c-5.3,0-10.4-1.5-14.8-4.3c-24.7,2.4-47.8,2.7-55.3,2.8
		c-4.6,2.1-20.8,11.9-23,13.6c-9.6,8.7-14.5,21.4-13.4,34.2c1.4,13.1,9.1,24.7,20.6,31.1c11.2,6.2,24.5,7.3,38.2,6.3
		C381.2,312.9,516.8,286.6,551.5,231.6z M489.7,255.4c-11,19.9-34.7,33-58.7,33c-1.6,0-3.1-0.1-4.7-0.2c-2.6-0.2-5.2-0.5-7.7-1.1
		l0,0c-16.8-3.4-32.5-13.7-45.2-29.9c-2.2-2.8-3.1-5.8-2.4-8.4c0.6-2.4,2.5-4.3,4.9-5c1.5-0.3,3-0.4,4.5-0.2
		c32.7,3.4,62.2,3.7,90.1,1.1c1.6-0.1,3.2-0.4,4.8-0.6c2.3-0.3,4.7-0.6,7-0.8c3.6-0.2,6.6,1.2,8,3.6
		C491.6,249.4,491.4,252.4,489.7,255.4z M590.5,278.9c-1.1,18.1-20.4,33.1-38.9,38.7c-18,5.4-37.9,4.5-57.1,3.6
		c-3.7-0.2-7.5-0.3-11.2-0.5c-22.6-0.8-45-2.8-67.4-6.1c-2.3-0.3-4.8-0.9-7.4-1.4c-2.3-0.5-4.7-1-7.1-1.4
		c56.6-13.7,125.9-37.5,152-75c0.1,0.1,0.3,0.2,0.4,0.2C579.2,248.6,591.5,262.7,590.5,278.9z M316.6,229.5
		c-4.3-17.7-2.9-32.4,4.1-43.5c9.5-15,26.6-18.7,26.8-18.7c2.4-0.5,4-2.9,3.6-5.3c0-0.2-0.1-0.5-0.2-0.7c-5.4-14.7-5.4-27.8,0-39.1
		c9.2-19.1,31.1-27.3,33.6-28.2c2.1,0.3,4.1,0.5,6.2,0.5c9.5,0,24.1-2.3,35.6-8.7c1.1-0.6,1.5-2,0.9-3.1s-2-1.5-3.1-0.9l0,0
		c-12.9,7.1-29,8.5-36.3,8.1c0-0.3,0-0.6,0-1c-0.9-6.2-2-13.3-1-19.1c0.7-3.8,2.9-6.4,5.7-9.7c1.4-1.6,2.8-3.3,4.1-5.1
		c6.5-9.3,4.3-18.6,2.4-26.7c-0.3-1.3-0.6-2.6-0.9-3.9c-0.5-2.1-0.2-4,0.5-4.7c5.4-5.4,28.7,5.6,43,15.8
		c13.5,9.7,24.3,22.7,31.3,37.8c4.5,9.7,7.4,22,9.7,34c-8.6,7.9-36.9,31.6-79,44.3l0.1,0.2c-6-6.1-13.4-9.7-21.5-9.7
		c-19.6,0-35.5,21.2-35.5,47.4c0,16.1,6.1,30.4,15.4,39c-18.7,1.6-36,2.1-45.3,2.3C316.8,230.3,316.7,229.9,316.6,229.5L316.6,229.5
		L316.6,229.5z"/>
	<path class="st2" d="M382.4,165.8c9.3,0,16.9,10.9,16.9,24.2s-7.6,24.2-16.9,24.2s-16.9-10.9-16.9-24.2S373,165.8,382.4,165.8z
		 M599.5,279.4c-1.4,23.2-24.5,40.5-45.3,46.7c-12.3,3.7-25.1,4.7-37.8,4.7c-7.4,0-14.9-0.3-22.2-0.7c-3.7-0.2-7.4-0.3-11-0.5
		c-22.9-0.8-45.7-2.9-68.4-6.2c-2.6-0.4-5.4-1-8-1.5c-5.9-1.2-12-2.5-17.1-1.8c-6.1,0.9-12.6,2.2-19.4,3.6
		c-25.7,5.2-54.8,11.2-78.3-1.7c-23.8-13.1-32.5-43.1-19.4-66.9c2.7-5,6.3-9.5,10.6-13.2c1.4-1.2,9.8-6.3,13.6-8.6
		c4.7-2.8,7.9-4.6,10.2-5.7c-3.8-18.5-1.7-34.2,6.3-46.6c8.3-13,20.8-18.8,27.6-21.2c-4.7-15.3-4.1-29.3,1.9-41.7
		c9-18.7,27.7-28.2,35.5-31.5c-0.8-5.8-1.5-12.4-0.4-18.5c1.1-6.2,4.6-10.3,7.8-14c1.3-1.5,2.5-2.9,3.5-4.4c4.2-6,2.8-12,1-19.5
		c-0.3-1.3-0.6-2.7-0.9-4.1c-1.1-5.2-0.1-10,2.9-13c13.7-13.7,50.5,11.8,54.6,14.8c14.8,10.6,26.6,24.9,34.3,41.4
		c4.9,10.5,7.9,23.4,10.4,36c7,1.3,9.1,1.7,9.9,2c3.8,1.2,7.4,2.8,10.7,4.9c7.6,4.7,13.1,11,15.9,18.3c2.5,6.5,2.7,13.5,2.6,18.8
		v0.3c-0.1,3.7-0.2,6.4-0.3,8.4c13.5,4.4,23.3,12.1,29,23c9.6,18.4,4.8,40.5,2.2,49.4C587.9,243.6,600.7,260,599.5,279.4z
		 M316.6,229.5L316.6,229.5L316.6,229.5c0.1,0.4,0.1,0.8,0.1,1.2c9.3-0.1,26.5-0.6,45.3-2.3c-9.3-8.6-15.4-22.8-15.4-39
		c0-26.1,15.9-47.4,35.5-47.4c8.1,0,15.5,3.6,21.5,9.7l-0.1-0.2c42.1-12.7,70.4-36.4,79-44.3c-2.3-12-5.2-24.3-9.7-34
		c-7-15.1-17.8-28.1-31.3-37.8c-14.3-10.2-37.6-21.1-43-15.8c-0.8,0.8-1,2.6-0.5,4.7c0.3,1.3,0.6,2.6,0.9,3.9
		c1.9,8.2,4.1,17.4-2.4,26.7c-1.3,1.8-2.6,3.5-4.1,5.1c-2.8,3.3-5,5.9-5.7,9.7c-1.1,5.9,0,12.9,1,19.1c0,0.3,0.1,0.6,0,1
		c7.4,0.4,23.4-1,36.3-8.1c1.1-0.6,2.5-0.2,3.1,0.9s0.2,2.5-0.9,3.1l0,0c-11.6,6.3-26.2,8.7-35.6,8.7c-2.1,0-4.2-0.1-6.2-0.5
		c-2.5,0.9-24.4,9.1-33.6,28.2c-5.4,11.3-5.4,24.5,0,39.1c0.9,2.3-0.3,4.9-2.7,5.8c-0.2,0.1-0.5,0.1-0.7,0.2
		c-0.2,0-17.2,3.7-26.8,18.7C313.7,197.2,312.3,211.8,316.6,229.5z M382.2,146.6c-17.1,0-31,19.2-31,42.9s13.9,42.9,31,42.9
		s31-19.2,31-42.9S399.3,146.6,382.2,146.6z M551.5,231.6c0-0.1,0.1-0.2,0.1-0.4c0.1-0.3,9.7-26.4-0.5-46
		c-5-9.7-14.3-16.3-27.4-19.6l0,0c-2.4-0.6-3.9-3.1-3.2-5.5c0.1-0.5,0.3-1,0.6-1.4c0.3-3,0.5-6.1,0.5-9.2v-0.4
		c0.1-4.8,0-10.3-2-15.3c-2.6-6.9-8.1-11.3-12.2-13.8c-2.8-1.7-5.7-3-8.8-4c-0.8-0.2-6.5-1.3-8.9-1.7c-2.9-0.5-4.7-0.9-5.7-2.2
		c-22.5,19.5-48.8,34.2-77.2,43.2c6.7,8.6,10.9,20.7,10.9,34.1c0.1,10.6-2.7,21.1-8.2,30.2c13.3-4,29.7-10.5,43.1-20.6
		c-0.5-3.2-0.7-6.4-0.7-9.6c0-26.1,15.9-47.4,35.5-47.4s35.5,21.2,35.5,47.4c0,26.1-15.9,47.4-35.5,47.4
		c-15.8,0-29.2-13.8-33.8-32.9c-15.6,11.2-34.6,17.9-48.5,21.7c-6.2,7-14.2,11.2-22.9,11.2c-5.3,0-10.4-1.5-14.8-4.3
		c-24.7,2.4-47.8,2.7-55.3,2.8c-4.6,2.1-20.8,11.9-23,13.6c-9.6,8.7-14.5,21.4-13.4,34.2c1.4,13.1,9.1,24.7,20.6,31.1
		c11.2,6.2,24.5,7.3,38.2,6.3C381.2,312.9,516.8,286.6,551.5,231.6z M487.4,232.3c17.1,0,31-19.2,31-42.9s-13.9-42.9-31-42.9
		s-31,19.2-31,42.9S470.3,232.3,487.4,232.3L487.4,232.3z M554,237c-0.1-0.1-0.3-0.1-0.4-0.2c-26.2,37.5-95.5,61.3-152,75
		c2.4,0.4,4.7,0.9,7.1,1.4c2.6,0.6,5.1,1.1,7.4,1.4c22.3,3.3,44.8,5.3,67.4,6.1c3.7,0.1,7.4,0.3,11.2,0.5c19.2,0.9,39,1.8,57.1-3.6
		c18.5-5.5,37.8-20.6,38.9-38.7C591.5,262.7,579.2,248.6,554,237L554,237z M487.6,214.3c9.3,0,16.9-10.9,16.9-24.2
		s-7.6-24.2-16.9-24.2s-16.9,10.9-16.9,24.2S478.3,214.3,487.6,214.3L487.6,214.3z M490.2,247c1.3,2.3,1.2,5.3-0.5,8.3
		c-11,19.9-34.7,33-58.7,33c-1.6,0-3.1-0.1-4.7-0.2c-2.6-0.2-5.2-0.5-7.7-1.1l0,0c-16.8-3.4-32.5-13.7-45.2-29.9
		c-2.2-2.8-3.1-5.8-2.4-8.4c0.6-2.4,2.5-4.3,4.9-5c1.5-0.3,3-0.4,4.5-0.2c32.7,3.4,62.2,3.7,90.1,1.1c1.6-0.1,3.2-0.4,4.8-0.6
		c2.3-0.3,4.7-0.6,7-0.8C485.8,243.2,488.8,244.6,490.2,247L490.2,247z M486.3,249.3c-0.7-1.1-2.5-1.5-3.9-1.4
		c-2.2,0.1-4.4,0.4-6.7,0.7c-1.7,0.2-3.3,0.5-4.9,0.6c-28.2,2.7-57.9,2.3-91-1.1c-0.5-0.1-1.1-0.1-1.6-0.1c-0.4,0-0.7,0-1.1,0.1
		c-0.9,0.3-1.5,1-1.8,1.8c-0.4,1.7,0.9,3.7,1.6,4.5c8.4,10.7,22.6,24.3,42.6,28.3l0,0c2.4,0.5,4.8,0.8,7.2,1
		c23.6,1.7,48.4-11.1,59.1-30.5C486.4,252,486.9,250.4,486.3,249.3L486.3,249.3z"/>
</g>
<g class="st3">
	<path d="M61,388.6c-1.3,1.9-4.3,7.2-9,15.7s-7.7,14.3-9.1,17.3c-2.6,3.8-6.1,5.7-10.8,5.7c-2.1,0-3.8-0.4-5.1-1.3
		c-1.3-0.9-1.9-2-1.9-3.3c0-3.4,2.8-9.1,8.3-17.1c3.3-4.7,5.7-8.3,7.2-11l10-17.8c3.3-5.9,6.3-9.6,8.8-11.2c2.5-1.6,5.3-2.4,8.3-2.4
		c4.1,0,6.6,1.3,7.6,4s1.6,9.4,1.8,20c0.2,8.8,0.8,15.6,1.8,20.2c5.8-7.1,12.5-17,20.1-29.7l5.7-9.3c2.3-3.9,6.3-5.8,11.8-5.8
		c2.6,0,4.6,0.9,6.2,2.6c1.6,1.8,2.3,5.4,2.3,10.8l-0.1,9.6c0,3.5,0.1,7.3,0.5,11.4s0.9,8.1,1.7,12c1.6,7.5,2.3,11.9,2.3,13.2
		c0,1.4-1.1,2.7-3.2,3.9c-2.1,1.3-4.6,1.9-7.2,1.9c-4.5,0-7.4-2.1-8.5-6.4l-1.1-9.8c-0.2-1.6-0.3-10-0.4-25
		c-0.7,0.9-1.5,2.1-2.5,3.7c-5.3,8.3-9.2,14.1-11.9,17.4l-6,7.5c-3.5,4.4-6.3,7.3-8.3,8.8c-2.1,1.5-4.6,2.2-7.7,2.2
		c-3.5,0-5.9-1.5-7.2-4.5l-1.6-7.5C63,410.4,62,401.8,61,388.6z"/>
	<path d="M197.5,407.4c-3.1,0.3-8.2,0.6-15.2,0.9c-6.9,0.3-12,0.6-15.2,1c-7.5,8.1-12.2,12.8-14.1,14.2c-2,1.4-4.4,2.1-7.3,2.1
		c-2.2,0-4.1-0.4-5.5-1.3c-1.5-0.9-2.2-2-2.2-3.2c0-1.4,4.2-6.4,12.7-14.8c-0.2-0.4-0.4-0.8-0.4-1.1c0-2,2.3-3.4,6.9-4.3
		c27.7-24,43.5-36,47.4-36c4.4,0,7,1.8,7.9,5.4c0,5,0.5,12.8,1.5,23.3c1,10.5,1.8,16.4,2.2,17.6c0.4,1.2,0.9,2.6,1.6,4.2
		c0.7,1.9,1.1,3.3,1.1,4.4c0,1.6-1.1,3.1-3.2,4.4c-2.1,1.3-4.5,1.9-7.1,1.9C203.3,426,199.6,419.8,197.5,407.4z M195.4,384.5
		c-5.5,4.9-11.1,9.8-16.8,14.7c2.1-0.3,5.1-0.5,9-0.6c4.5-0.2,7.4-0.3,8.6-0.4C196.1,394.6,195.9,390.1,195.4,384.5z"/>
	<path d="M258.6,375.9l-1.8,7c-0.5,2.1-1.1,4.1-1.7,5.9l-0.9,3.4c-0.3,1-0.5,1.8-0.7,2.4c-0.8,3.3-1.2,6.1-1.2,8.5
		c0,9,6,13.6,18.1,13.6c7.5,0,14.3-3.2,20.4-9.5c6.1-6.3,11.2-18.1,15.4-35.4c0.5-1.9,1.9-3.6,4-5c2.2-1.4,4.7-2.1,7.6-2.1
		c4.5,0,6.7,1.4,6.7,4.2c0,1.9-2.1,8.9-6.4,21c-4.3,12.1-10.8,21.5-19.6,28c-8.8,6.6-19.1,9.9-30.9,9.9c-22,0-33-7.6-33-22.7
		c0-4,1.1-9.9,3.3-17.6l2.7-9.3c0.5-1.5,0.9-3.1,1.3-4.7c0.6-2.5,1.9-4.8,3.9-6.9c2-2,4.3-3.1,7-3.1c2.1,0,3.8,0.4,5.3,1.3
		c1.5,0.9,2.3,1.9,2.3,3.2C260.6,368.9,259.9,371.5,258.6,375.9z"/>
	<path d="M370.8,375.8c-1.8,5.3-3.7,11.9-5.7,19.8l-4.3,18.2l8.3-0.1c3.5,0,6.5,0,8.7,0c2.3,0,4,0.5,5.2,1.4
		c1.2,0.9,1.8,1.9,1.8,3.1c0,1.7-1,3.2-3,4.5c-2,1.3-4.3,1.9-7,1.9h-4.3c-1.7,0-3.7,0-6.1,0.1l-6.1,0.1c-6.6,0.1-12.2,0.3-16.8,0.7
		c-5.3,0.5-9.4,0.8-12.3,0.8c-2.2,0-4-0.4-5.3-1.3c-1.4-0.9-2.1-1.9-2.1-3.2c0-1.7,1-3.2,3-4.6c2-1.3,4.4-2,7.1-2
		c3.4,0,7.2-0.2,11.2-0.6c4.2-19,7.7-32.1,10.6-39.3l-13.5,0.3c-2,0.1-3.8-0.4-5.3-1.2c-1.5-0.9-2.2-2-2.2-3.4
		c0-1.6,0.9-3.1,2.8-4.3c1.8-1.3,4.4-2,7.6-2.1c3.2-0.1,9.3-0.2,18.1-0.2c5.4,0,11.6,0.2,18.8,0.7s11.6,0.8,13.2,1.1
		c1.6,0.2,2.9,0.7,3.8,1.4c0.9,0.7,1.4,1.6,1.4,2.8c0,2-1,3.6-3.1,4.8c-2,1.2-4.4,1.8-7.2,1.8C386.2,376.9,380.4,376.6,370.8,375.8z
		"/>
	<path d="M477.2,373.4c-1.3,6-2.4,10.5-3.3,13.4c6.3-1.1,11.7-1.6,16-1.6c9.4,0,16.2,0.3,20.4,0.8c4.2,0.5,6.2,1.9,6.2,4.2
		c0,1.9-1,3.5-3.1,4.8c-2.1,1.3-4.4,2-6.9,2c-3.1,0-6.3-0.1-9.8-0.3c-3.3-0.2-6.5-0.3-9.5-0.3c-3,0-8.3,0.6-16.1,1.8l-6.1,25.3
		c-0.4,1.5-1.6,2.8-3.6,3.9c-2,1.1-4.4,1.6-7,1.6c-2.3,0-4.2-0.5-5.4-1.6c-1.3-1-1.7-2.4-1.3-4l11.1-46.3c0.4-1.7,0.8-3.3,1.3-4.7
		c0.5-1.6,1-3.2,1.4-4.8c0.4-1.6,1.5-2.9,3.3-4c1.8-1.1,4-1.6,6.6-1.6c1.6,0,3,0.2,4,0.6c9.6-1.1,17.8-1.6,24.4-1.6
		c4.9,0,11,0.7,18.4,2.1c7.4,1.4,11,3.1,11,5c0,1.3-1,2.6-3,4c-2,1.4-4.3,2.1-7,2.1c-0.9,0-1.9-0.1-3-0.4
		c-5.1-1.1-11.5-1.6-19.1-1.6C492.7,372.2,486,372.6,477.2,373.4z"/>
	<path d="M584.4,407.4c-3.1,0.3-8.2,0.6-15.2,0.9c-6.9,0.3-12,0.6-15.2,1c-7.5,8.1-12.2,12.8-14.1,14.2c-2,1.4-4.4,2.1-7.3,2.1
		c-2.2,0-4.1-0.4-5.5-1.3c-1.5-0.9-2.2-2-2.2-3.2c0-1.4,4.2-6.4,12.7-14.8c-0.2-0.4-0.4-0.8-0.4-1.1c0-2,2.3-3.4,6.9-4.3
		c27.7-24,43.5-36,47.4-36c4.4,0,7,1.8,7.9,5.4c0,5,0.5,12.8,1.5,23.3s1.8,16.4,2.2,17.6c0.4,1.2,0.9,2.6,1.6,4.2
		c0.7,1.9,1.1,3.3,1.1,4.4c0,1.6-1.1,3.1-3.2,4.4s-4.5,1.9-7.1,1.9C590.2,426,586.5,419.8,584.4,407.4z M582.3,384.5
		c-5.5,4.9-11.1,9.8-16.8,14.7c2.1-0.3,5.1-0.5,9-0.6c4.5-0.2,7.4-0.3,8.6-0.4C583,394.6,582.8,390.1,582.3,384.5z"/>
	<path d="M664.4,375.8c-1.8,5.3-3.7,11.9-5.7,19.8l-4.3,18.2l8.3-0.1c3.5,0,6.5,0,8.7,0c2.3,0,4,0.5,5.2,1.4
		c1.2,0.9,1.8,1.9,1.8,3.1c0,1.7-1,3.2-3,4.5c-2,1.3-4.3,1.9-7,1.9h-4.3c-1.7,0-3.7,0-6.1,0.1l-6.1,0.1c-6.6,0.1-12.2,0.3-16.8,0.7
		c-5.3,0.5-9.4,0.8-12.3,0.8c-2.2,0-4-0.4-5.3-1.3c-1.4-0.9-2.1-1.9-2.1-3.2c0-1.7,1-3.2,3-4.6c2-1.3,4.4-2,7.1-2
		c3.4,0,7.2-0.2,11.2-0.6c4.2-19,7.7-32.1,10.6-39.3l-13.5,0.3c-2,0.1-3.8-0.4-5.3-1.2c-1.5-0.9-2.2-2-2.2-3.4
		c0-1.6,0.9-3.1,2.8-4.3c1.8-1.3,4.4-2,7.6-2.1c3.2-0.1,9.3-0.2,18.1-0.2c5.4,0,11.6,0.2,18.8,0.7c7.2,0.5,11.6,0.8,13.2,1.1
		c1.6,0.2,2.9,0.7,3.8,1.4c0.9,0.7,1.4,1.6,1.4,2.8c0,2-1,3.6-3.1,4.8c-2,1.2-4.4,1.8-7.2,1.8C679.7,376.9,673.9,376.6,664.4,375.8z
		"/>
	<path d="M683.5,419.8l4.3-12.7c3.8-11.1,7.4-24.2,11-39.1c0.3-1.4,1.4-2.7,3.3-3.8c1.9-1.1,4.1-1.7,6.6-1.7c2.2,0,4,0.4,5.3,1.3
		c1.4,0.9,2,2,2,3.4c0,1.1-1.1,5.4-3.2,12.9l-4.9,17.2c-1.2,3.9-3.4,10.7-6.9,20.4c9.7-0.1,22.6-1.7,38.7-4.7c1-0.2,2-0.2,2.8-0.2
		c2.5,0,4.3,0.5,5.5,1.5c1.2,1,1.7,2,1.7,3.1c0,2.5-1.8,4.3-5.3,5.6c-3.6,1.3-10.7,2.5-21.3,3.8c-10.7,1.3-19.6,1.9-26.9,1.9
		c-8.8,0-13.2-2.2-13.2-6.6C683.2,421.2,683.3,420.5,683.5,419.8z"/>
	<path d="M755.1,415.4c0-2.2,1-4,3.1-5.4c2.1-1.4,4.6-2.1,7.5-2.1c3.6,0,6,1.2,7.4,3.7c1.5,3.3,6.4,5,14.7,5c6.7,0,14-1,21.8-3.1
		c7.8-2,11.7-4.8,11.7-8.4c0-2.4-1.5-4.1-4.4-5c-2.9-0.9-9.2-1.4-18.8-1.5c-7.5-0.1-13.9-1.1-19.4-3c-5.5-1.9-8.2-4.4-8.2-7.5
		c0-5.3,4.9-10.4,14.7-15.4c9.8-5,20.2-7.4,31.4-7.4c4.2,0,9.4,0.7,15.4,2s9,2.9,9,4.6c0,1.2-1,2.5-2.9,3.9c-1.9,1.4-4.3,2-7,2
		c-2.1,0-5-0.3-8.6-0.8c-3.4-0.5-6.2-0.8-8.5-0.8c-5.4,0-10.8,0.9-16.3,2.7c-5.5,1.8-8.2,3.7-8.2,5.8c0,1.8,2.7,2.9,8,3.5l14.3,0.4
		c5.6,0.2,10.6,0.9,14.9,2.1c4.3,1.2,7.5,3,9.6,5.2c2.1,2.2,3.2,4.8,3.2,7.8c0,7.5-5.5,13.3-16.5,17.3s-23.8,6-38.5,6
		c-9.4,0-16.7-1.2-21.8-3.5C757.6,421.4,755.1,418.6,755.1,415.4z"/>
</g>
</svg>
